<?xml version="1.0" encoding="utf-8"?>
<!-- Generator: Adobe Illustrator 23.0.1, SVG Export Plug-In . SVG Version: 6.00 Build 0)  -->
<svg version="1.1" id="Layer_1" xmlns="http://www.w3.org/2000/svg" xmlns:xlink="http://www.w3.org/1999/xlink" x="0px" y="0px"
	 viewBox="0 0 50 40" style="enable-background:new 0 0 50 40;" xml:space="preserve">
<style type="text/css">
	.st0{fill:none;stroke:#D7DAE0;}
	.st1{fill:#D7DAE0;}
</style>
<g>
	<path class="st0" d="M14,8.5h3.7c0.1,0,0.2,0.1,0.2,0.2v3.9c0,0.1-0.1,0.2-0.2,0.2H14c-0.2,0-0.4-0.1-0.4-0.2V8.8
		C13.6,8.6,13.8,8.5,14,8.5z"/>
	<path class="st0" d="M14,17.8h3.7c0.1,0,0.2,0.1,0.2,0.2v3.8c0,0.1-0.1,0.2-0.2,0.2H14c-0.1,0-0.2-0.1-0.2-0.2v-3.8
		C13.6,18,13.8,17.8,14,17.8z"/>
	<path class="st0" d="M14,27.2h3.7c0.1,0,0.2,0.1,0.2,0.2v3.8c0,0.1-0.1,0.2-0.2,0.2H14c-0.1,0-0.2-0.1-0.2-0.2v-3.8
		C13.6,27.3,13.8,27.2,14,27.2z"/>
	<path class="st1" d="M21.3,8.4h15.5c0.2,0,0.4,0.1,0.4,0.4v3.9c0,0.2-0.1,0.4-0.4,0.4H21.3c-0.2,0-0.4-0.1-0.4-0.4V8.8
		C21,8.6,21.1,8.4,21.3,8.4z"/>
	<path class="st1" d="M21.3,17.7h15.5c0.2,0,0.4,0.1,0.4,0.4v3.8c0,0.2-0.1,0.4-0.4,0.4H21.3c-0.2,0-0.4-0.1-0.4-0.4v-3.8
		C21,18,21.1,17.7,21.3,17.7z"/>
	<path class="st1" d="M21.3,27.1h15.5c0.2,0,0.4,0.1,0.4,0.4v3.8c0,0.2-0.1,0.4-0.4,0.4H21.3c-0.2,0-0.4-0.1-0.4-0.4v-3.8
		C21,27.3,21.1,27.1,21.3,27.1z"/>
</g>
</svg>
