<?xml version="1.0" encoding="utf-8"?>
<!-- Generator: Adobe Illustrator 23.0.1, SVG Export Plug-In . SVG Version: 6.00 Build 0)  -->
<svg version="1.1" id="Layer_1" xmlns="http://www.w3.org/2000/svg" xmlns:xlink="http://www.w3.org/1999/xlink" x="0px" y="0px"
	 viewBox="0 0 32 32" style="enable-background:new 0 0 32 32;" xml:space="preserve">
<path style="fill:none;stroke:#D7DAE0;" d="M6.3,6.6h3.1c0.1,0,0.2,0.1,0.2,0.2V10c0,0.1-0.1,0.2-0.2,0.2H6.3C6.1,10.2,6,10.1,6,10
	V6.8C6,6.7,6.1,6.6,6.3,6.6z"/>
<path style="fill:none;stroke:#D7DAE0;" d="M6.3,14.2h3.1c0.1,0,0.2,0.1,0.2,0.2v3.1c0,0.1-0.1,0.2-0.2,0.2H6.3
	c-0.1,0-0.2-0.1-0.2-0.2v-3.1C6,14.3,6.1,14.2,6.3,14.2z"/>
<path style="fill:none;stroke:#D7DAE0;" d="M6.3,21.8h3.1c0.1,0,0.2,0.1,0.2,0.2v3.1c0,0.1-0.1,0.2-0.2,0.2H6.3
	c-0.1,0-0.2-0.1-0.2-0.2V22C6,21.9,6.1,21.8,6.3,21.8z"/>
<path style="fill:#D7DAE0;" d="M12.5,6.5h13.1c0.2,0,0.3,0.1,0.3,0.3V10c0,0.2-0.1,0.3-0.3,0.3H12.5c-0.2,0-0.3-0.1-0.3-0.3V6.8
	C12.2,6.7,12.3,6.5,12.5,6.5z"/>
<path style="fill:#D7DAE0;" d="M12.5,14.1h13.1c0.2,0,0.3,0.1,0.3,0.3v3.1c0,0.2-0.1,0.3-0.3,0.3H12.5c-0.2,0-0.3-0.1-0.3-0.3v-3.1
	C12.2,14.3,12.3,14.1,12.5,14.1z"/>
<path style="fill:#D7DAE0;" d="M12.5,21.7h13.1c0.2,0,0.3,0.1,0.3,0.3v3.1c0,0.2-0.1,0.3-0.3,0.3H12.5c-0.2,0-0.3-0.1-0.3-0.3V22
	C12.2,21.9,12.3,21.7,12.5,21.7z"/>
</svg>
